<svg xmlns="http://www.w3.org/2000/svg" width="39" height="39" viewBox="0 0 39 39">
    <g fill="#FFF" fill-rule="evenodd">
        <path d="M26.202 28.8c-.47 0-.935-.205-1.252-.6l-6.4-8a1.599 1.599 0 0 1-.35-1V8c0-.885.715-1.6 1.6-1.6.885 0 1.6.715 1.6 1.6v10.638l6.05 7.562a1.601 1.601 0 0 1-1.248 2.6"/>
        <path d="M19.778 38.402c-5.085 0-9.898-1.968-13.554-5.626C1.792 28.346-.16 22.216.867 15.96 2.217 7.723 8.962 1.229 17.27.163c6.624-.845 13.094 1.691 17.321 6.795a1.6 1.6 0 1 1-2.465 2.04c-3.522-4.252-8.917-6.376-14.45-5.66-6.913.886-12.528 6.29-13.65 13.14-.859 5.226.769 10.343 4.461 14.036 3.693 3.692 8.808 5.318 14.036 4.462 6.864-1.126 12.404-6.989 13.174-13.94a16.05 16.05 0 0 0-.597-6.536 1.596 1.596 0 0 1 1.061-2 1.594 1.594 0 0 1 1.998 1.062c.213.699.392 1.422.525 2.148a19.43 19.43 0 0 1 .195 5.677c-.94 8.485-7.452 15.373-15.838 16.747a20.344 20.344 0 0 1-3.262.268"/>
    </g>
</svg>
