<svg xmlns="http://www.w3.org/2000/svg" width="140" height="140" viewBox="0 0 140 140">
    <path fill="#EF7A21" fill-rule="evenodd" d="M49.876 58.805c-15 0-27.2 12.202-27.2 27.2 0 2.256.307 4.57.907 6.881l.996 3.812 35.986-35.985-3.811-.996a27.18 27.18 0 0 0-6.878-.912zm79.884-27.192a10.17 10.17 0 0 0-7.242 3.001l-5.098 5.097V6.774A6.783 6.783 0 0 0 110.645 0h-81.29a6.783 6.783 0 0 0-6.774 6.774v37.518C8.996 53.212 0 68.573 0 86.005c0 13.322 5.19 25.848 14.61 35.269l1.597 1.596 6.374-6.374v16.73A6.783 6.783 0 0 0 29.355 140h81.291a6.783 6.783 0 0 0 6.774-6.774V68.677l19.582-19.582a10.174 10.174 0 0 0 2.998-7.24c0-5.647-4.593-10.242-10.24-10.242zM68.87 99.55l-2.452-2.452 46.485-46.485 2.452 2.452L68.87 99.55zm.947 7.332l-6.101 1.016 1.016-6.101 5.085 5.085zM27.097 6.774a2.26 2.26 0 0 1 2.258-2.258h81.29a2.26 2.26 0 0 1 2.259 2.258v11.29H27.097V6.775zm0 15.807h85.806v21.646L61.116 96.013l-2.897 17.38 17.38-2.897 37.304-37.303v44.226H27.097v-5.44L86.74 52.336l-1.596-1.596c-9.421-9.421-21.946-14.61-35.269-14.61a49.557 49.557 0 0 0-22.78 5.527V22.581zm.158 65.055a20.94 20.94 0 0 1-.063-1.63c0-12.508 10.177-22.685 22.684-22.685.537 0 1.082.02 1.63.063L27.255 87.636zm-11.01 28.808c-.588-.646-1.113-1.333-1.66-2.005l3.597-2.613-2.655-3.656-3.611 2.622c-1.788-2.726-3.292-5.607-4.444-8.636l4.284-1.39-1.393-4.295-4.268 1.287C5.259 94.65 4.78 92.58 4.62 88.064h4.412v-4.516h-4.4c.162-2.258.672-6.402 1.505-9.48l4.226 1.423 1.393-4.27-4.223-1.36a45.22 45.22 0 0 1 4.396-8.639l3.6 2.617 2.655-3.651-3.6-2.615a45.706 45.706 0 0 1 6.86-6.86l2.616 3.6 3.656-2.656-2.615-3.6a45.075 45.075 0 0 1 8.644-4.394l1.373 4.223 4.295-1.396-1.473-4.225c3.078-.834 7.221-1.342 9.48-1.505v4.401h4.516V40.75c4.516.16 6.586.641 9.691 1.477L60.29 46.49l4.32 1.395 1.405-4.283c3.028 1.152 5.914 2.658 8.64 4.444l-2.62 3.61 3.658 2.656 2.614-3.6c.676.545 1.36 1.073 2.008 1.66l-64.07 64.071zm51.497 12.265a2.259 2.259 0 1 1 4.517.002 2.259 2.259 0 0 1-4.517-.002zm45.161 4.517a2.259 2.259 0 0 1-2.258 2.258H70.009c3.73-.005 6.765-3.043 6.765-6.774A6.783 6.783 0 0 0 70 121.936a6.783 6.783 0 0 0-6.774 6.774c0 3.732 3.035 6.769 6.765 6.774H29.355a2.259 2.259 0 0 1-2.258-2.258v-11.29h85.806v11.29zm-38.387-28.032l-2.452-2.452 46.484-46.485L121 58.71l-46.484 46.485zm49.678-49.677l-8.098-8.098 3.581-3.58 8.098 8.097-3.581 3.58zm9.614-9.613l-2.84 2.839-8.097-8.097 2.84-2.84a5.697 5.697 0 0 1 4.049-1.676 5.733 5.733 0 0 1 5.724 5.726 5.697 5.697 0 0 1-1.676 4.048zM56.452 9.032h27.097v4.517H56.452V9.032z"/>
</svg>
