<svg xmlns="http://www.w3.org/2000/svg" width="111" height="111" viewBox="0 0 111 111">
    <g fill="#10BFB0" fill-rule="nonzero">
        <path d="M96.677 10.742v39.387H111V10.742H96.677zm10.742 35.806h-7.16V14.323h7.16v32.225zM78.774 28.853a42.843 42.843 0 0 0-3.58-2.874v-.914h-1.349c-6.976-4.616-15.224-7.162-23.716-7.162h-1.79v44.758h44.758v-1.79a42.97 42.97 0 0 0-1.386-10.742h1.386V17.903H78.774v10.95zM51.92 59.08V21.523a39.401 39.401 0 0 1 14.554 3.542H60.87v25.064h14.323V30.555a39.209 39.209 0 0 1 3.58 3.325V50.13h9.231a39.391 39.391 0 0 1 1.472 8.952H51.919zm19.694-30.436v17.903h-7.161V28.645h7.16zm10.742-7.161h7.161v25.064h-7.161V21.484zM13.952 69.45l15.216-15.215 2.532 2.532-15.216 15.216zM21.484 55.5a5.378 5.378 0 0 0-5.371-5.371 5.378 5.378 0 0 0-5.371 5.371 5.378 5.378 0 0 0 5.37 5.371 5.378 5.378 0 0 0 5.372-5.371zm-7.161 0a1.791 1.791 0 1 1 3.582.001 1.791 1.791 0 0 1-3.582-.001zM30.435 64.452a5.378 5.378 0 0 0-5.37 5.37 5.378 5.378 0 0 0 5.37 5.372 5.378 5.378 0 0 0 5.371-5.371 5.378 5.378 0 0 0-5.37-5.371zm0 7.16a1.791 1.791 0 1 1 .002-3.581 1.791 1.791 0 0 1-.002 3.582z"/>
        <path d="M78.518 92.1c4.838-7.128 7.417-15.404 7.417-24.068v-1.79H44.758V25.065h-1.79c-1.77 0-3.568.155-5.371.383V0H0v25.065h22.533l3.496 3.496C10.357 35.291 0 50.806 0 68.032 0 91.724 19.276 111 42.968 111c10.389 0 20.286-3.756 28.106-10.54l5.54 5.54a5.574 5.574 0 0 0 3.95 1.634c1.431 0 2.863-.546 3.952-1.634a5.594 5.594 0 0 0 0-7.903L78.518 92.1zM24.015 21.484H3.581V3.58h30.435v27.904l-10-10.001zm18.953 85.935c-21.719 0-39.387-17.668-39.387-39.387 0-16.276 10.09-30.877 25.202-36.717l8.814 8.813V29.04a40.177 40.177 0 0 1 3.58-.353v41.137h41.138c-.313 7.062-2.506 13.8-6.37 19.704L73.09 86.67a10.68 10.68 0 0 0 .313-2.526c0-5.924-4.818-10.742-10.742-10.742-5.924 0-10.742 4.818-10.742 10.742 0 5.924 4.818 10.742 10.742 10.742.872 0 1.715-.116 2.526-.313l3.348 3.348c-7.136 6.115-16.129 9.497-25.567 9.497zm26.855-23.274a7.168 7.168 0 0 1-7.162 7.161 7.168 7.168 0 0 1-7.161-7.16 7.168 7.168 0 0 1 7.161-7.162 7.168 7.168 0 0 1 7.162 7.161zm12.161 19.323a2.008 2.008 0 0 1-2.84 0L68.7 93.023a10.816 10.816 0 0 0 2.84-2.84l10.444 10.446a2.01 2.01 0 0 1 0 2.84z"/>
        <path d="M7.161 7.161h23.274v3.581H7.161zM7.161 14.323h23.274v3.581H7.161zM60.871 82.355h3.581v3.581h-3.581zM44.758 82.355h3.581v3.581h-3.581zM37.597 82.355h3.581v3.581h-3.581zM30.435 82.355h3.581v3.581h-3.581z"/>
    </g>
</svg>
