<svg xmlns="http://www.w3.org/2000/svg" width="112" height="112" viewBox="0 0 112 112"><g fill="#10BFB0"><path d="M86.818 80.425L104.135 60.8a5.367 5.367 0 0 0 2.172.463 5.412 5.412 0 0 0 5.405-5.406 5.412 5.412 0 0 0-5.405-5.405 5.412 5.412 0 0 0-5.406 5.405c0 .89.238 1.72.62 2.46L84.63 77.458 57.436 40.55 68.52 26.697a16.285 16.285 0 0 0 3.553-10.133v-.348C72.072 7.274 64.798 0 55.856 0S39.64 7.274 39.64 16.217v.347a16.28 16.28 0 0 0 3.553 10.132l11.091 13.863-13.36 23.38-8.766-11.396-29.637 55.565H0v3.604h111.712v-3.604h-4.496L86.818 80.425zm19.488-26.37a1.802 1.802 0 1 1 0 3.604 1.802 1.802 0 0 1 0-3.605zM46.007 24.442a12.662 12.662 0 0 1-2.764-7.88v-.347c0-6.953 5.66-12.612 12.613-12.612 6.953 0 12.612 5.66 12.612 12.612v.348a12.66 12.66 0 0 1-2.764 7.88l-9.849 12.31-9.848-12.31zm-39.4 83.665l26.1-48.938 16.315 21.209 2.857-2.197-8.573-11.146L56.048 44.74l26.146 35.483-4.346 4.926a5.383 5.383 0 0 0-2.173-.464 5.38 5.38 0 0 0-1.903.364l-6.054-8.475c.465-.799.75-1.712.75-2.7a5.412 5.412 0 0 0-5.406-5.405 5.412 5.412 0 0 0-5.405 5.406c0 .875.229 1.692.602 2.425L43.646 92.373a5.375 5.375 0 0 0-2.206-.48 5.412 5.412 0 0 0-5.405 5.405 5.412 5.412 0 0 0 5.405 5.405 5.412 5.412 0 0 0 5.406-5.405 5.33 5.33 0 0 0-.602-2.426l14.613-16.074a5.37 5.37 0 0 0 2.205.481c.672 0 1.308-.139 1.903-.364l6.054 8.476a5.338 5.338 0 0 0-.75 2.699 5.412 5.412 0 0 0 5.406 5.406 5.412 5.412 0 0 0 5.406-5.406c0-.89-.238-1.719-.62-2.46l3.919-4.44 18.362 24.918H6.607zm70.87-18.018a1.802 1.802 0 1 1-3.604 0 1.802 1.802 0 0 1 3.605 0zM64.866 73.874a1.802 1.802 0 1 1-3.605-.001 1.802 1.802 0 0 1 3.605 0zM43.243 97.298a1.802 1.802 0 1 1-3.604-.001 1.802 1.802 0 0 1 3.604 0z"/><path d="M64.865 16.217c0-4.968-4.041-9.01-9.01-9.01-4.967 0-9.008 4.042-9.008 9.01 0 4.967 4.041 9.009 9.009 9.009s9.009-4.042 9.009-9.01zm-14.415 0a5.412 5.412 0 0 1 5.406-5.406 5.412 5.412 0 0 1 5.405 5.406 5.412 5.412 0 0 1-5.405 5.405 5.413 5.413 0 0 1-5.406-5.405zM79.279 3.604h3.604v3.604h-3.604zm7.207 3.603h-3.603v3.604h3.604V7.207h3.603V3.604h-3.603V0h-3.604v3.604h3.603zm3.604 7.207h3.604v3.604H90.09zm7.207 0h3.604v3.604h-3.604z"/><path d="M93.694 10.811h3.604v3.604h-3.604zm0 7.207h3.604v3.604h-3.604zm-73.874 0h3.604v3.604H19.82zm7.207 0h3.604v3.604h-3.604zm-3.603-3.604h3.604v3.604h-3.604zm0 7.208h3.604v3.604h-3.604zm-19.82 7.207h3.603v3.604h3.604v-3.604H7.207v-3.603H3.604v3.603H0v3.604h3.604zm0 3.604h3.604v3.604H3.604zm30.63 3.603h3.604v3.604h-3.604zm-3.604-3.603v3.603h-3.603v3.604h3.603v3.604h3.604V39.64h-3.603v-3.604h3.603v-3.603zm41.442 1.802h3.604V30.63h3.603v3.604h3.604V30.63h-3.604v-3.603h-3.603v3.603h-3.604zm3.604 0h3.604v3.604h-3.604z"/></g></svg>