<svg xmlns="http://www.w3.org/2000/svg" width="139" height="139" viewBox="0 0 139 139"><path fill="#F17A0F" fill-rule="evenodd" d="M118.823 60.532a6.734 6.734 0 0 0-6.726 6.726 6.734 6.734 0 0 0 6.726 6.726 6.734 6.734 0 0 0 6.726-6.726 6.734 6.734 0 0 0-6.726-6.726zm4.484 47.08a6.734 6.734 0 0 0 6.726-6.726V38.633C135.449 34.766 139 28.446 139 21.298 139 9.555 129.445 0 117.702 0h-15.694C90.265 0 80.71 9.555 80.71 21.298c0 1.922.269 3.803.764 5.605h-65.78a6.734 6.734 0 0 0-6.727 6.726v26.904H4.484v22.831C1.881 84.292 0 86.758 0 89.677v22.42c0 2.919 1.88 5.385 4.484 6.313V139h22.42v-20.59c2.602-.928 4.483-3.394 4.483-6.313v-4.484h6.726v24.661A6.734 6.734 0 0 0 44.84 139h78.468a6.734 6.734 0 0 0 6.726-6.726v-11.21c0-4.946-4.022-8.968-8.968-8.968h-2.242v17.936h2.242c1.641 0 3.16-.476 4.484-1.247v3.489a2.243 2.243 0 0 1-2.242 2.242h-11.622c.25-.704.412-1.453.412-2.242v-11.21c0-4.946-4.022-8.968-8.968-8.968h-2.242v17.935h2.242c1.641 0 3.16-.475 4.484-1.247v3.49a2.243 2.243 0 0 1-2.242 2.241H44.84a2.243 2.243 0 0 1-2.242-2.242v-24.661h80.71zm0 17.333v-7.763a4.48 4.48 0 0 1 0 7.763zm-17.936 0v-7.763a4.48 4.48 0 0 1 0 7.763zM118.823 69.5a2.244 2.244 0 0 1-2.242-2.242 2.244 2.244 0 0 1 2.242-2.242 2.244 2.244 0 0 1 2.242 2.242 2.244 2.244 0 0 1-2.242 2.242zm6.726-2.242v33.63a2.243 2.243 0 0 1-2.242 2.241h-11.21V42.597h5.605c2.773 0 5.414-.55 7.847-1.518v26.179zm-23.54-62.774h15.693c9.272 0 16.814 7.542 16.814 16.814 0 9.273-7.542 16.815-16.814 16.815H103.57l-7.167 4.777v-5.685l-1.316-.596c-6.01-2.725-9.893-8.733-9.893-15.31 0-9.273 7.541-16.815 16.814-16.815zM13.45 33.629a2.244 2.244 0 0 1 2.242-2.242h6.726v29.146H13.45V33.629zM8.968 65.016h13.451v17.935H8.968V65.016zm13.451 69.5H8.968v-15.693h13.451v15.693zm4.484-33.629v11.21a2.243 2.243 0 0 1-2.242 2.242H6.726a2.243 2.243 0 0 1-2.242-2.242v-11.192c.01 6.173 5.034 11.192 11.21 11.192 6.18 0 11.21-5.029 11.21-11.21 0-6.181-5.03-11.21-11.21-11.21-6.176 0-11.2 5.02-11.21 11.192V89.677a2.243 2.243 0 0 1 2.242-2.242H24.66a2.243 2.243 0 0 1 2.242 2.242v11.21zm-17.936 0a6.734 6.734 0 0 1 6.726-6.726 6.734 6.734 0 0 1 6.726 6.726 6.734 6.734 0 0 1-6.726 6.726 6.734 6.734 0 0 1-6.726-6.726zM67.258 35.87c-12.362 0-22.42 10.057-22.42 22.42 0 12.362 10.058 22.419 22.42 22.419 12.362 0 22.42-10.057 22.42-22.42 0-12.361-10.058-22.42-22.42-22.42zm6.726 39.034a17.814 17.814 0 0 1-6.726 1.32 17.82 17.82 0 0 1-6.726-1.32V69.5a6.734 6.734 0 0 1 6.726-6.726 6.734 6.734 0 0 1 6.726 6.726v5.405zm-11.21-23.34a4.488 4.488 0 0 1 4.484-4.484 4.488 4.488 0 0 1 4.484 4.484 4.488 4.488 0 0 1-4.484 4.484 4.488 4.488 0 0 1-4.484-4.484zm15.693 20.703V69.5c0-4.57-2.755-8.493-6.685-10.237 2.645-1.563 4.443-4.412 4.443-7.699 0-4.946-4.022-8.968-8.967-8.968-4.946 0-8.968 4.022-8.968 8.968 0 3.287 1.798 6.136 4.443 7.699-3.93 1.744-6.685 5.667-6.685 10.237v2.768c-4.094-3.29-6.726-8.328-6.726-13.978 0-9.889 8.047-17.935 17.936-17.935 9.89 0 17.935 8.046 17.935 17.935 0 5.65-2.631 10.69-6.726 13.978zM59.412 87.435h-8.968a5.61 5.61 0 0 0-5.605 5.605 5.61 5.61 0 0 0 5.605 5.605h8.968a5.61 5.61 0 0 0 5.605-5.605 5.61 5.61 0 0 0-5.605-5.605zm0 6.726h-8.968a1.124 1.124 0 0 1-1.121-1.12c0-.617.504-1.122 1.12-1.122h8.969c.616 0 1.12.505 1.12 1.121 0 .617-.504 1.121-1.12 1.121zm24.66-6.726h-8.968A5.61 5.61 0 0 0 69.5 93.04a5.61 5.61 0 0 0 5.604 5.605h8.968a5.61 5.61 0 0 0 5.605-5.605 5.61 5.61 0 0 0-5.605-5.605zm0 6.726h-8.968a1.124 1.124 0 0 1-1.12-1.12c0-.617.504-1.122 1.12-1.122h8.968c.617 0 1.121.505 1.121 1.121 0 .617-.504 1.121-1.12 1.121zm-52.685 8.968V89.677c0-2.919-1.881-5.385-4.484-6.313V31.387h56.412c1.95 3.603 4.894 6.652 8.604 8.654v11.23l13.01-8.674h2.684v60.532H31.387zM94.161 13.45h31.388v4.484H94.16V13.45zm0 11.21h31.388v4.484H94.16V24.66z"/></svg>