<svg xmlns="http://www.w3.org/2000/svg" width="38" height="38" viewBox="0 0 38 38"><g fill="#FFF" fill-rule="evenodd"><path d="M11.083 4.75h15.834v3.167H11.083zM38 9.5c0 .87-.712 1.583-1.583 1.583s-1.584-.712-1.584-1.583c0-.87-.712-1.583-1.583-1.583H28.5V4.75h4.75A4.764 4.764 0 0 1 38 9.5"/><path d="M38 15.833V33.25A4.764 4.764 0 0 1 33.25 38H4.75A4.764 4.764 0 0 1 0 33.25V9.5a4.764 4.764 0 0 1 4.75-4.75H9.5v3.167H4.75c-.87 0-1.583.712-1.583 1.583v23.75c0 .87.712 1.583 1.583 1.583h28.5c.87 0 1.583-.712 1.583-1.583V15.833c0-.87.713-1.583 1.584-1.583.87 0 1.583.713 1.583 1.583"/><path d="M10.292 0a3.96 3.96 0 0 0-3.959 3.958v4.75a3.96 3.96 0 0 0 3.959 3.959 3.96 3.96 0 0 0 3.958-3.959v-4.75A3.96 3.96 0 0 0 10.292 0zm.791 8.708a.784.784 0 0 1-.791.792.784.784 0 0 1-.792-.792v-4.75c0-.443.348-.791.792-.791.443 0 .791.348.791.791v4.75zM27.708 0a3.96 3.96 0 0 0-3.958 3.958v4.75a3.96 3.96 0 0 0 3.958 3.959 3.96 3.96 0 0 0 3.959-3.959v-4.75A3.96 3.96 0 0 0 27.708 0zm.792 8.708a.784.784 0 0 1-.792.792.784.784 0 0 1-.791-.792v-4.75c0-.443.348-.791.791-.791.444 0 .792.348.792.791v4.75zM31.667 28.5H6.333a1.582 1.582 0 0 1-1.583-1.583c0-.876.708-1.584 1.583-1.584h25.334c.875 0 1.583.708 1.583 1.584 0 .875-.708 1.583-1.583 1.583m0-9.5H6.333a1.582 1.582 0 0 1-1.583-1.583c0-.876.708-1.584 1.583-1.584h25.334c.875 0 1.583.708 1.583 1.584 0 .875-.708 1.583-1.583 1.583"/><path d="M12.667 33.25a1.582 1.582 0 0 1-1.584-1.583v-14.25a1.582 1.582 0 1 1 3.167 0v14.25c0 .875-.708 1.583-1.583 1.583m12.666 0a1.582 1.582 0 0 1-1.583-1.583v-14.25a1.582 1.582 0 1 1 3.167 0v14.25c0 .875-.708 1.583-1.584 1.583"/></g></svg>