<svg xmlns="http://www.w3.org/2000/svg" width="85" height="70" viewBox="0 0 85 70"><path fill="#EA8111" fill-rule="evenodd" d="M79.516 0H5.484A5.493 5.493 0 0 0 0 5.49v49.412c0 3.028 2.46 5.49 5.484 5.49h24.677v6.863h-9.596V70h43.87v-2.745H54.84v-6.863h24.677A5.493 5.493 0 0 0 85 54.902V5.49C85 2.462 82.54 0 79.516 0zm-27.42 67.255H32.904v-6.863h19.194v6.863zm30.162-12.353a2.746 2.746 0 0 1-2.742 2.745H5.484a2.746 2.746 0 0 1-2.742-2.745V5.49a2.746 2.746 0 0 1 2.742-2.745h74.032a2.746 2.746 0 0 1 2.742 2.745v49.412zm-76.774 0h74.032V5.49H5.484v49.412zM8.226 8.236h68.548v43.92H8.226V8.237zm4.113 5.49a1.372 1.372 0 1 0-.002-2.744 1.372 1.372 0 0 0 .002 2.744zm4.113 0a1.372 1.372 0 1 0-.002-2.744 1.372 1.372 0 0 0 .002 2.744zm4.113 0a1.372 1.372 0 1 0-.002-2.744 1.372 1.372 0 0 0 .002 2.744zm-9.597 19.215H30.16v-16.47H10.968v16.47zm2.742-13.725h13.71v10.98H13.71v-10.98zM32.903 32.94h19.194V16.47H32.903v16.47zm2.742-13.725h13.71v10.98h-13.71v-10.98zM54.84 32.94h19.193V16.47H54.84v16.47zm2.742-13.725h13.71v10.98H57.58v-10.98zm-46.613 16.47h41.129v2.745h-41.13v-2.745zm0 5.49h41.129v2.746h-41.13v-2.746zm0 5.49h41.129v2.746h-41.13v-2.746zm45.242-10.98h17.822v2.745H56.21v-2.745zm0 5.49h17.822v2.746H56.21v-2.746zm0 5.49h17.822v2.746H56.21v-2.746z"/></svg>