<svg xmlns="http://www.w3.org/2000/svg" width="85" height="79" viewBox="0 0 85 79"><path fill="#EA8111" fill-rule="evenodd" d="M82.258 68.093V25.831c0-3.007-2.46-5.453-5.484-5.453h-6.689c-.036-.121-.061-.247-.1-.367l-1.179.367h-5.742v-2.206L45.32 9.351l-23.385 8.72v2.307h-6.321l-.653-.197c-.02.065-.033.132-.052.197H8.226c-3.025 0-5.484 2.446-5.484 5.454v42.261H0v5.454C0 76.554 2.46 79 5.484 79h74.032C82.54 79 85 76.554 85 73.547v-5.454h-2.742zM46.613 13.041l11.655 5.796-11.655 4.346V13.04zm0 13.053l13.71-5.112v14.913l-13.71-6.816v-2.985zm11.656 11.829l-17.14 6.39V32.912l4.035-1.505 13.105 6.517zm-17.14-7.924v-1.86l2.742-1.022v1.86l-2.742 1.022zm2.742-17.196v11.402l-4.035 1.505-13.105-6.517 17.14-6.39zM24.677 21.22l13.71 6.816v2.985l-13.71 5.112V21.22zm13.71 12.713v10.141L26.732 38.28l11.655-4.346zm1.293 13.831l23.384-8.72V28.559h5.484c0 1.293-.096 2.59-.286 3.861l2.712.401a29.16 29.16 0 0 0 .315-4.262h2.743v34.083H10.968V28.558h10.967v10.386l17.745 8.821zM5.484 25.831a2.737 2.737 0 0 1 2.742-2.726h6.025c-.08.415-.171.83-.233 1.247l2.713.398c.083-.55.19-1.099.309-1.646h4.895v2.727H8.225v39.535h68.549V25.831h-13.71v-2.726h4.893c.107.493.211.99.288 1.487l2.71-.413c-.054-.36-.138-.716-.207-1.074h6.026a2.737 2.737 0 0 1 2.742 2.726v42.262H46.613v2.727h-8.226v-2.727H5.484V25.831zm76.774 47.715a2.737 2.737 0 0 1-2.742 2.727H5.484a2.737 2.737 0 0 1-2.742-2.727V70.82h32.903a2.737 2.737 0 0 0 2.742 2.726h8.226a2.737 2.737 0 0 0 2.742-2.726h32.903v2.726zM26.208 8.344l-1.716-2.126a29.11 29.11 0 0 0-3.143 2.916l2.013 1.85a26.465 26.465 0 0 1 2.847-2.64zm6.703-3.878l-1.009-2.534A28.875 28.875 0 0 0 28.036 3.8l1.38 2.357a25.795 25.795 0 0 1 3.495-1.69zm-11.97 9.55l-2.268-1.532a28.71 28.71 0 0 0-2.146 3.708L19 17.369a25.825 25.825 0 0 1 1.94-3.353zm47.455 2.019a28.595 28.595 0 0 0-2.166-3.692l-2.258 1.546a25.816 25.816 0 0 1 1.96 3.34l2.464-1.194zM16.452 28.61l-2.742.006c.003 1.427.112 2.861.325 4.261l2.711-.407a26.218 26.218 0 0 1-.294-3.86zm45.081-17.737l2.003-1.861a28.73 28.73 0 0 0-3.16-2.898l-1.704 2.134c1.016.8 1.978 1.684 2.861 2.625zm-4.719-7.16a28.703 28.703 0 0 0-3.881-1.846l-.995 2.54a26.244 26.244 0 0 1 3.512 1.67l1.364-2.364zm-8-3.094A28.958 28.958 0 0 0 44.56 0l-.195 2.72c1.296.091 2.592.28 3.85.56l.6-2.66zm-8.342 2.112l-.21-2.718c-1.433.11-2.863.328-4.252.646l.615 2.657a26.342 26.342 0 0 1 3.847-.585zm19.99 48.2l-1.71-2.13a26.201 26.201 0 0 1-3.213 2.185l1.375 2.358a29.18 29.18 0 0 0 3.549-2.413zm-7.42 4.274L52.04 52.67a26.041 26.041 0 0 1-3.716 1.143l.61 2.658a28.782 28.782 0 0 0 4.11-1.264zM66.296 44.68l-2.265-1.537a26.02 26.02 0 0 1-2.428 3.027l2.01 1.854a28.689 28.689 0 0 0 2.683-3.344zm3.725-7.688l-2.622-.801a25.34 25.34 0 0 1-1.42 3.603l2.47 1.183a28.178 28.178 0 0 0 1.572-3.985zM36.732 53.824a25.958 25.958 0 0 1-3.72-1.134l-.999 2.538c1.334.52 2.718.94 4.116 1.256l.603-2.66zm7.948 3.281l-.205-2.718a26.516 26.516 0 0 1-3.894.004l-.2 2.72a29.483 29.483 0 0 0 4.299-.006zm-15.175-6.091a26.176 26.176 0 0 1-3.218-2.18l-1.708 2.132a29.02 29.02 0 0 0 3.555 2.409l1.37-2.361zm-10.77-6.29a28.752 28.752 0 0 0 2.688 3.336l2.007-1.857a26.02 26.02 0 0 1-2.433-3.02l-2.261 1.541zm-1.12-8.484l-2.618.807c.424 1.36.956 2.698 1.58 3.98l2.467-1.19a25.596 25.596 0 0 1-1.428-3.597z"/></svg>