<svg xmlns="http://www.w3.org/2000/svg" width="47" height="35" viewBox="0 0 47 35"><g fill="#FFF" fill-rule="evenodd"><path d="M7.68 24.47a3.8 3.8 0 0 1-2.715-1.137L.563 18.875a1.96 1.96 0 0 1 0-2.75 1.9 1.9 0 0 1 2.714 0l4.403 4.459 4.403-4.459a1.9 1.9 0 0 1 2.714 0 1.96 1.96 0 0 1 0 2.75l-4.402 4.458a3.803 3.803 0 0 1-2.715 1.138"/><path d="M8.12 23.158c-.86 0-1.642-.589-1.859-1.472a15.74 15.74 0 0 1-.24-1.104l-.194-1.57a6.123 6.123 0 0 1-.029-.353l-.013-.216c-.023-.3-.025-.62-.025-.943C5.76 7.852 13.511 0 23.04 0c.572 0 1.146.023 1.72.091.49.037 1.07.129 1.607.241.525.107 1.06.238 1.573.39.37.116.712.225 1.056.355.19.062.45.158.681.274.31.111.818.345 1.277.601 1.289.65 2.598 1.57 3.821 2.693.785.722.845 1.953.134 2.748a1.908 1.908 0 0 1-2.713.134c-.965-.887-1.985-1.604-3.027-2.133a8.257 8.257 0 0 0-1.035-.486c-.248-.113-.334-.136-.419-.164a16.51 16.51 0 0 0-.887-.3 14.26 14.26 0 0 0-1.229-.302 9.906 9.906 0 0 0-1.215-.181 11.06 11.06 0 0 0-1.344-.072C15.63 3.889 9.6 9.994 9.6 17.5c0 .224-.002.445.013.651l.022.286c.001.014.011.183.013.195l.165 1.347c.039.208.106.494.171.764A1.941 1.941 0 0 1 8.588 23.1a1.84 1.84 0 0 1-.468.058m36.04-3.714c-.492 0-.983-.19-1.357-.57L38.4 14.417l-4.403 4.459a1.9 1.9 0 0 1-2.714 0 1.96 1.96 0 0 1 0-2.75l4.402-4.458a3.809 3.809 0 0 1 5.43 0l4.402 4.458a1.96 1.96 0 0 1 0 2.75c-.374.379-.865.57-1.357.57"/><path d="M23.04 35c-1.144 0-2.262-.11-3.324-.33a19.452 19.452 0 0 1-1.576-.391 16.258 16.258 0 0 1-4.016-1.803c-.177-.082-.504-.297-.801-.515a15.444 15.444 0 0 1-2.035-1.622 1.963 1.963 0 0 1-.1-2.75 1.904 1.904 0 0 1 2.713-.098c.5.47 1.027.886 1.61 1.275.204.15.34.245.477.315 1.121.688 2.156 1.153 3.225 1.464.419.125.841.226 1.268.313.814.17 1.674.253 2.559.253 7.41 0 13.44-6.105 13.44-13.611 0-.224.002-.445-.013-.651l-.022-.286a10.851 10.851 0 0 0-.019-.25 11.845 11.845 0 0 0-.33-2.054A1.944 1.944 0 0 1 37.49 11.9a1.926 1.926 0 0 1 2.329 1.412 16.244 16.244 0 0 1 .46 3.03c.003.022.014.194.016.215.023.3.025.622.025.943 0 9.648-7.751 17.5-17.28 17.5"/></g></svg>