<svg xmlns="http://www.w3.org/2000/svg" width="85" height="85" viewBox="0 0 85 85"><path fill="#EA8111" fill-rule="evenodd" d="M72.661 37.016a4.118 4.118 0 0 0-4.113 4.113 4.118 4.118 0 0 0 4.113 4.113 4.118 4.118 0 0 0 4.113-4.113 4.118 4.118 0 0 0-4.113-4.113zm2.742 28.79a4.118 4.118 0 0 0 4.113-4.113V23.624C82.828 21.26 85 17.394 85 13.024 85 5.843 79.157 0 71.976 0h-9.597c-7.181 0-13.024 5.843-13.024 13.024 0 1.175.164 2.325.468 3.428H9.597a4.118 4.118 0 0 0-4.113 4.113v16.451H2.742v13.962C1.15 51.546 0 53.054 0 54.838v13.71c0 1.785 1.15 3.293 2.742 3.861V85h13.71V72.41c1.591-.568 2.742-2.077 2.742-3.862v-2.742h4.113v15.081A4.118 4.118 0 0 0 27.42 85h47.984a4.118 4.118 0 0 0 4.113-4.113v-6.855a5.49 5.49 0 0 0-5.484-5.484h-1.371v10.968h1.37a5.429 5.429 0 0 0 2.743-.763v2.134a1.37 1.37 0 0 1-1.371 1.37h-7.108a4.05 4.05 0 0 0 .253-1.37v-6.855a5.49 5.49 0 0 0-5.484-5.484h-1.371v10.967h1.37c1.004 0 1.932-.29 2.743-.762v2.133c0 .757-.614 1.371-1.371 1.371H27.419a1.371 1.371 0 0 1-1.37-1.37V65.805h49.354zm0 10.6v-4.748a2.74 2.74 0 0 1 0 4.748zm-10.967 0v-4.748a2.74 2.74 0 0 1 0 4.748zM72.66 42.5a1.372 1.372 0 0 1-1.37-1.371 1.372 1.372 0 0 1 2.741 0c0 .755-.614 1.371-1.37 1.371zm4.113-1.371v20.565a1.37 1.37 0 0 1-1.37 1.37h-6.856V26.05h3.428c1.696 0 3.31-.337 4.798-.929V41.13zM62.38 2.742h9.597c5.67 0 10.282 4.612 10.282 10.282s-4.612 10.282-10.282 10.282h-8.642l-4.382 2.922v-3.477l-.805-.365a10.305 10.305 0 0 1-6.05-9.362c0-5.67 4.612-10.282 10.282-10.282zM8.226 20.565c0-.756.614-1.371 1.37-1.371h4.114v17.822H8.226V20.565zM5.484 39.758h8.226v10.968H5.484V39.758zm8.226 42.5H5.484v-9.597h8.226v9.597zm2.742-20.564v6.855a1.37 1.37 0 0 1-1.371 1.37H4.113a1.371 1.371 0 0 1-1.371-1.37v-6.844a6.863 6.863 0 0 0 6.855 6.844 6.863 6.863 0 0 0 6.855-6.855 6.863 6.863 0 0 0-6.855-6.855 6.863 6.863 0 0 0-6.855 6.844v-6.844c0-.757.614-1.371 1.371-1.371h10.968c.757 0 1.37.614 1.37 1.37v6.856zm-10.968 0a4.118 4.118 0 0 1 4.113-4.114 4.118 4.118 0 0 1 4.113 4.113 4.118 4.118 0 0 1-4.113 4.113 4.118 4.118 0 0 1-4.113-4.113zm35.645-39.759c-7.56 0-13.71 6.15-13.71 13.71 0 7.56 6.15 13.71 13.71 13.71 7.56 0 13.71-6.15 13.71-13.71 0-7.56-6.15-13.71-13.71-13.71zm4.113 23.87a10.894 10.894 0 0 1-8.226 0V42.5a4.118 4.118 0 0 1 4.113-4.113 4.118 4.118 0 0 1 4.113 4.113v3.305zm-6.855-14.273a2.745 2.745 0 0 1 2.742-2.742 2.745 2.745 0 0 1 2.742 2.742 2.745 2.745 0 0 1-2.742 2.742 2.745 2.745 0 0 1-2.742-2.742zm9.597 12.66V42.5c0-2.794-1.685-5.193-4.089-6.26 1.618-.956 2.718-2.698 2.718-4.708a5.49 5.49 0 0 0-5.484-5.484 5.49 5.49 0 0 0-5.484 5.484c0 2.01 1.1 3.752 2.717 4.708-2.403 1.067-4.088 3.466-4.088 6.26v1.693C31.77 42.18 30.16 39.1 30.16 35.645c0-6.047 4.92-10.968 10.968-10.968 6.047 0 10.968 4.92 10.968 10.968 0 3.455-1.61 6.537-4.113 8.548zM36.33 53.469h-5.484a3.43 3.43 0 0 0-3.428 3.427 3.43 3.43 0 0 0 3.428 3.428h5.484a3.43 3.43 0 0 0 3.427-3.428 3.43 3.43 0 0 0-3.427-3.427zm0 4.113h-5.484a.687.687 0 0 1-.686-.686c0-.377.309-.685.686-.685h5.484c.377 0 .685.308.685.685a.687.687 0 0 1-.685.686zm15.08-4.113h-5.484a3.43 3.43 0 0 0-3.427 3.427 3.43 3.43 0 0 0 3.427 3.428h5.484a3.43 3.43 0 0 0 3.428-3.428 3.43 3.43 0 0 0-3.428-3.427zm0 4.113h-5.484a.687.687 0 0 1-.685-.686c0-.377.308-.685.685-.685h5.484c.377 0 .686.308.686.685a.687.687 0 0 1-.686.686zm-32.217 5.483V54.84c0-1.785-1.15-3.293-2.742-3.86V19.193h34.496c1.193 2.203 2.993 4.067 5.262 5.292v6.867l7.955-5.305h1.641v37.016H19.194zM57.58 8.226h19.193v2.742H57.581V8.226zm0 6.855h19.193v2.742H57.581V15.08z"/></svg>