<svg xmlns="http://www.w3.org/2000/svg" width="85" height="85" viewBox="0 0 85 85"><path fill="#EA8111" fill-rule="evenodd" d="M30.282 35.703c-9.107 0-16.515 7.409-16.515 16.515 0 1.37.187 2.774.551 4.177l.605 2.314 21.849-21.848-2.314-.604a16.502 16.502 0 0 0-4.176-.554zm48.5-16.51c-1.66 0-3.222.648-4.396 1.823l-3.095 3.094V4.113A4.118 4.118 0 0 0 67.177 0H17.823a4.118 4.118 0 0 0-4.113 4.113v22.779C5.462 32.307 0 41.634 0 52.217c0 8.089 3.15 15.694 8.87 21.413l.97.97 3.87-3.87v10.157A4.118 4.118 0 0 0 17.823 85h49.355a4.118 4.118 0 0 0 4.113-4.113v-39.19l11.889-11.89A6.177 6.177 0 0 0 85 25.413a6.225 6.225 0 0 0-6.217-6.218zM41.815 60.44l-1.489-1.488 28.223-28.223 1.49 1.489L41.813 60.44zm.575 4.452l-3.704.617.617-3.705 3.087 3.088zM16.452 4.113c0-.755.614-1.371 1.37-1.371h49.356c.757 0 1.37.616 1.37 1.371v6.855H16.453V4.113zm0 9.597h52.096v13.142L37.106 58.294l-1.759 10.552 10.553-1.76 22.648-22.648V71.29H16.452v-3.302l36.212-36.213-.969-.97c-5.72-5.72-13.324-8.87-21.413-8.87a30.09 30.09 0 0 0-13.83 3.356V13.71zm.096 39.497a12.713 12.713 0 0 1-.039-.99c0-7.593 6.18-13.772 13.773-13.772.326 0 .657.012.99.038L16.548 53.207zM9.863 70.698c-.357-.392-.676-.809-1.008-1.217l2.184-1.587-1.612-2.22-2.192 1.592a27.165 27.165 0 0 1-2.698-5.242l2.6-.845-.845-2.607-2.592.781c-.507-1.886-.797-3.144-.895-5.886h2.679v-2.742H2.812c.099-1.37.408-3.886.914-5.755l2.566.864.845-2.593-2.563-.825a27.455 27.455 0 0 1 2.669-5.245l2.185 1.589 1.612-2.217-2.185-1.588a27.75 27.75 0 0 1 4.165-4.165l1.588 2.185 2.22-1.612-1.588-2.185a27.367 27.367 0 0 1 5.248-2.668l.834 2.564 2.607-.848-.894-2.565c1.869-.507 4.384-.815 5.755-.914v2.672h2.742V24.74c2.742.098 4 .39 5.884.897l-.811 2.59 2.623.847.852-2.6a27.3 27.3 0 0 1 5.246 2.697l-1.59 2.192 2.22 1.613 1.588-2.186c.41.33.825.652 1.218 1.008l-38.9 38.9zm31.266 7.447a1.371 1.371 0 1 1 2.743 0 1.371 1.371 0 0 1-2.743 0zm27.42 2.742c0 .757-.615 1.371-1.372 1.371H42.505a4.118 4.118 0 0 0 4.108-4.113 4.118 4.118 0 0 0-4.113-4.113 4.118 4.118 0 0 0-4.113 4.113 4.118 4.118 0 0 0 4.108 4.113H17.823a1.371 1.371 0 0 1-1.371-1.371v-6.855h52.096v6.855zm-23.307-17.02l-1.489-1.488 28.223-28.223 1.489 1.489-28.223 28.223zm30.161-30.16l-4.916-4.917 2.174-2.174 4.917 4.916-2.175 2.175zm5.838-5.837l-1.725 1.724-4.916-4.916 1.725-1.725a3.459 3.459 0 0 1 2.458-1.017 3.481 3.481 0 0 1 3.475 3.477 3.46 3.46 0 0 1-1.017 2.457zM34.274 5.484h16.452v2.742H34.274V5.484z"/></svg>