<svg xmlns="http://www.w3.org/2000/svg" width="85" height="85" viewBox="0 0 85 85"><path fill="#EA8111" fill-rule="evenodd" d="M42.5 21.94c-9.07 0-16.448 7.379-16.448 16.449a16.373 16.373 0 0 0 8.224 14.232v1.548a3.411 3.411 0 0 0-1.371 2.725c0 .775.267 1.482.702 2.056a3.386 3.386 0 0 0-.702 2.055 3.43 3.43 0 0 0 3.427 3.427h12.336a3.43 3.43 0 0 0 3.426-3.427c0-.774-.267-1.482-.701-2.056a3.393 3.393 0 0 0 .701-2.056 3.412 3.412 0 0 0-1.37-2.725v-1.549a16.372 16.372 0 0 0 8.224-14.232c0-9.068-7.378-16.447-16.448-16.447zm6.168 39.75H36.332a.687.687 0 0 1-.685-.685c0-.377.308-.686.685-.686h12.336c.377 0 .685.309.685.686a.687.687 0 0 1-.685.685zm0-4.112H36.332a.687.687 0 0 1-.685-.685c0-.377.308-.685.685-.685h12.336c.377 0 .685.308.685.685a.687.687 0 0 1-.685.685zm.06-6.993l-.745.384v2.497H43.87v-9.79c2.358-.612 4.112-2.741 4.112-5.288a5.488 5.488 0 0 0-5.483-5.482 5.488 5.488 0 0 0-5.483 5.482c0 2.547 1.753 4.676 4.112 5.288v9.79h-4.112v-2.497l-.745-.383c-4.613-2.36-7.479-7.034-7.479-12.198 0-7.557 6.15-13.706 13.707-13.706 7.558 0 13.706 6.149 13.706 13.706 0 5.164-2.865 9.838-7.478 12.197zm35.276.41c-.96-4.39-2.59-8.82-4.788-13.16 3.197-10.941 1.778-21.085-4.594-27.456-5.676-5.675-14.373-7.582-24.506-5.365a44.87 44.87 0 0 0-2.96.766C42.816 3.584 38.39 1.957 34.003.998c-11.2-2.452-20.82-.35-27.088 5.919C.648 13.185-1.453 22.805.996 34.005c.961 4.39 2.588 8.82 4.787 13.16-3.256 11.093-1.71 21.154 4.594 27.458 4.133 4.132 9.868 6.265 16.59 6.265 2.512 0 5.161-.299 7.915-.9a44.873 44.873 0 0 0 2.96-.767c4.339 2.196 8.765 3.823 13.152 4.782 3.05.667 5.982.997 8.761.997 7.43 0 13.766-2.355 18.327-6.917 6.27-6.266 8.37-15.887 5.922-27.088zm-11.32-38.678c5.134 5.135 6.588 13.135 4.628 22.019-3.087-5.27-7.016-10.352-11.657-14.992-4.64-4.64-9.72-8.57-14.991-11.657 8.804-1.94 16.833-.557 22.02 4.63zM3.673 33.42C1.431 23.164 3.27 14.44 8.854 8.855c4.033-4.033 9.7-6.112 16.403-6.112 2.578 0 5.311.308 8.162.932 3.33.729 6.692 1.861 10.015 3.354-7.694 2.93-15.275 7.936-21.872 14.533a69.381 69.381 0 0 0-6.552 7.587 6.076 6.076 0 0 0-1.98-.355 6.176 6.176 0 0 0-6.167 6.168 6.14 6.14 0 0 0 1.92 4.452 54.489 54.489 0 0 0-1.75 4.033c-1.494-3.329-2.63-6.692-3.359-10.027zm12.784 1.542a3.43 3.43 0 0 1-3.427 3.427 3.43 3.43 0 0 1-3.427-3.427 3.43 3.43 0 0 1 3.427-3.427 3.43 3.43 0 0 1 3.427 3.427zm-4.142 37.722c-5.064-5.064-6.6-13.006-4.614-21.995 3.083 5.262 7.009 10.334 11.643 14.967 4.641 4.642 9.722 8.573 14.995 11.66-8.806 1.94-16.835.558-22.024-4.632zM42.5 41.13a2.744 2.744 0 0 1-2.742-2.741 2.744 2.744 0 0 1 2.742-2.742 2.744 2.744 0 0 1 2.741 2.742A2.744 2.744 0 0 1 42.5 41.13zM21.283 63.717C16.105 58.54 11.849 52.805 8.719 46.89c.642-1.996 1.464-4.03 2.436-6.083.595.192 1.217.323 1.875.323 3.4 0 6.168-2.767 6.168-6.168a6.152 6.152 0 0 0-1.835-4.382A67.023 67.023 0 0 1 23.5 23.5c7.233-7.233 15.488-12.266 23.372-14.79 5.923 3.13 11.66 7.389 16.844 12.572 5.183 5.183 9.441 10.922 12.572 16.843-1.53 4.755-3.992 9.672-7.355 14.483a6.107 6.107 0 0 0-2.448-.512 6.176 6.176 0 0 0-6.168 6.168c0 1.252.38 2.415 1.024 3.388-7.194 7.15-15.386 12.133-23.212 14.639-5.923-3.13-11.663-7.39-16.847-12.574zm48.63-5.454a3.43 3.43 0 0 1-3.426 3.427 3.43 3.43 0 0 1-3.427-3.427 3.43 3.43 0 0 1 3.427-3.426 3.43 3.43 0 0 1 3.426 3.426zm6.233 17.884c-5.583 5.584-14.303 7.426-24.565 5.18-3.33-.73-6.69-1.862-10.015-3.354 7.655-2.916 15.197-7.887 21.77-14.435a6.1 6.1 0 0 0 3.15.894 6.177 6.177 0 0 0 6.169-6.169c0-1.539-.587-2.932-1.523-4.013 2.938-4.193 5.221-8.475 6.834-12.695 1.496 3.33 2.63 6.693 3.36 10.028 2.243 10.254.404 18.98-5.18 24.564z"/></svg>