<svg xmlns="http://www.w3.org/2000/svg" width="189" height="182" viewBox="0 0 189 182">
    <g fill="#10BFB0" fill-rule="nonzero">
        <path d="M185.33 123.607a10.269 10.269 0 0 0-8.388-2.266l-60.392 10.51v-21.569c4.656-.283 13.227-1.63 19.14-7.541 8.284-8.283 7.635-21.885 7.6-22.458a3.14 3.14 0 0 0-2.97-2.972c-.57-.05-14.172-.68-22.447 7.601-.473.473-.907.968-1.323 1.47V75.637c4.656-.284 13.227-1.63 19.14-7.542 8.284-8.282 7.635-21.884 7.6-22.458a3.14 3.14 0 0 0-2.97-2.972c-.57-.044-14.172-.68-22.447 7.605-.473.473-.907.968-1.323 1.469v-9.36l17.678-17.321c2.82-2.76 4.372-6.442 4.372-10.356 0-3.917-1.553-7.598-4.372-10.359 0-.003-.003-.003-.003-.003-5.733-5.616-15.035-5.657-20.825-.13-5.793-5.53-15.092-5.486-20.828.133-2.82 2.76-4.372 6.442-4.372 10.359 0 3.914 1.553 7.595 4.375 10.359l17.675 17.314v9.36c-.416-.504-.85-.995-1.323-1.468-8.275-8.289-21.877-7.649-22.447-7.605a3.14 3.14 0 0 0-2.97 2.972c-.035.574-.684 14.176 7.6 22.458 5.913 5.918 14.484 7.26 19.14 7.541v10.744c-.416-.504-.85-1-1.323-1.469-8.278-8.282-21.87-7.648-22.447-7.601a3.14 3.14 0 0 0-2.97 2.972c-.035.573-.684 14.175 7.6 22.457 5.913 5.919 14.484 7.262 19.14 7.542v17.708l-13.523-13.53c-.589-.588-1.39-.92-2.227-.92H63a3.148 3.148 0 0 0-3.15-3.15H0v6.302h44.1v44.121H0v6.303h59.85a3.148 3.148 0 0 0 3.15-3.151h8.707l33.676 16.848a10.295 10.295 0 0 0 4.606 1.093c1.792 0 3.581-.47 5.184-1.405l68.72-40.11a10.328 10.328 0 0 0 5.107-8.893c0-3.05-1.339-5.925-3.67-7.888zm-63.003-34.241c4.246-4.249 10.786-5.39 14.6-5.683-.286 3.807-1.42 10.325-5.692 14.598-4.246 4.248-10.785 5.39-14.597 5.682.287-3.807 1.42-10.324 5.69-14.597zm0-34.642c4.246-4.251 10.786-5.392 14.6-5.685-.286 3.807-1.42 10.324-5.692 14.598-4.243 4.245-10.773 5.386-14.587 5.682.296-3.817 1.436-10.35 5.68-14.595zm-26.762 8.913c-4.25-4.249-5.39-10.791-5.683-14.608 3.805.287 10.32 1.422 14.59 5.695 4.244 4.245 5.384 10.778 5.68 14.595-3.814-.296-10.344-1.437-14.587-5.682zm0 34.644c-4.25-4.248-5.39-10.794-5.683-14.607 3.805.287 10.32 1.418 14.59 5.692 4.244 4.248 5.384 10.78 5.68 14.597-3.814-.296-10.344-1.437-14.587-5.682zM56.7 160.811h-6.3v-44.122h6.3v44.121zM96.982 20.558c-1.6-1.57-2.482-3.65-2.482-5.856 0-2.21.882-4.29 2.48-5.856a8.653 8.653 0 0 1 6.075-2.46 8.67 8.67 0 0 1 6.074 2.46l2.07 2.03a3.142 3.142 0 0 0 4.403 0l2.07-2.03c3.348-3.277 8.794-3.277 12.143-.003 1.603 1.567 2.485 3.65 2.485 5.859 0 2.206-.882 4.286-2.48 5.852l-16.42 16.089-16.418-16.085zm83.737 114.384L112 175.053a3.975 3.975 0 0 1-3.799.119l-34.34-17.18a3.14 3.14 0 0 0-1.412-.333H63V119.84h30.196l24.819 24.83a5.802 5.802 0 0 1 1.685 4.075 5.766 5.766 0 0 1-5.758 5.761 5.802 5.802 0 0 1-4.073-1.686l-16.292-16.3-4.454 4.457 16.292 16.3a11.975 11.975 0 0 0 8.527 3.532c6.646 0 12.058-5.414 12.058-12.064 0-3.22-1.254-6.252-3.531-8.53l-2.552-2.553 58.099-10.11a3.946 3.946 0 0 1 3.257.879 3.99 3.99 0 0 1 1.427 3.06c0 1.415-.76 2.739-1.981 3.45z"/>
        <path d="M66.15 9.538h-6.3c0 5.212-4.24 9.454-9.45 9.454v6.303c5.21 0 9.45 4.242 9.45 9.455h6.3c0-5.213 4.24-9.455 9.45-9.455v-6.303c-5.21 0-9.45-4.242-9.45-9.454zM63 25.393a15.716 15.716 0 0 0-3.248-3.25A15.716 15.716 0 0 0 63 18.896a15.716 15.716 0 0 0 3.248 3.249A15.716 15.716 0 0 0 63 25.393zM47.25 37.901h-6.3c0 5.213-4.24 9.455-9.45 9.455v6.303c5.21 0 9.45 4.242 9.45 9.454h6.3c0-5.212 4.24-9.454 9.45-9.454v-6.303c-5.21 0-9.45-4.242-9.45-9.455zM44.1 53.757a15.716 15.716 0 0 0-3.248-3.25 15.716 15.716 0 0 0 3.248-3.249 15.716 15.716 0 0 0 3.248 3.25 15.716 15.716 0 0 0-3.248 3.249zM166.95 22.144h-6.3c0 5.212-4.24 9.454-9.45 9.454v6.303c5.21 0 9.45 4.242 9.45 9.455h6.3c0-5.213 4.24-9.455 9.45-9.455v-6.303c-5.21 0-9.45-4.242-9.45-9.454zm-3.15 15.855a15.716 15.716 0 0 0-3.248-3.25 15.716 15.716 0 0 0 3.248-3.248 15.716 15.716 0 0 0 3.248 3.249 15.716 15.716 0 0 0-3.248 3.249zM56.7 97.78H63v6.303h-6.3zM44.1 97.78h6.3v6.303h-6.3zM31.5 97.78h6.3v6.303h-6.3z"/>
    </g>
</svg>
