<svg xmlns="http://www.w3.org/2000/svg" width="141" height="141" viewBox="0 0 141 141">
    <g fill="#F17A0F" fill-rule="nonzero">
        <path d="M22.742 0v13.645h4.548v27.889c-7.834 2.028-13.645 9.137-13.645 17.595 0 5.435 2.409 10.309 6.2 13.645h-3.926C7.143 72.774 0 79.915 0 88.694v31.838c0 5.017 4.08 9.097 9.097 9.097 1.664 0 3.204-.482 4.548-1.264V141h4.549v-15.92h27.29V141h4.548v-12.635c1.344.782 2.884 1.264 4.549 1.264 5.017 0 9.096-4.08 9.096-9.097V88.694c0-.774-.075-1.529-.182-2.275h16.102v18.612c-2.64.942-4.549 3.443-4.549 6.404a6.83 6.83 0 0 0 6.823 6.823 6.83 6.83 0 0 0 6.823-6.823c0-2.96-1.909-5.462-4.549-6.404V86.42h52.307V13.645H141V0H22.742zm-4.548 59.129c0-7.525 6.12-13.645 13.645-13.645 7.525 0 13.645 6.12 13.645 13.645 0 7.525-6.12 13.645-13.645 13.645-7.526 0-13.645-6.12-13.645-13.645zm18.009 18.194l-4.364 5.455-4.364-5.455h8.728zm22.926 43.21a4.553 4.553 0 0 1-4.548 4.548 4.553 4.553 0 0 1-4.549-4.549V86.42h-4.548v34.113h-27.29V86.42h-4.549v34.113a4.553 4.553 0 0 1-4.548 4.549 4.553 4.553 0 0 1-4.549-4.549V88.694c0-6.27 5.101-11.371 11.371-11.371h5.729l10.19 12.737L42.03 77.323h5.73c6.269 0 11.37 5.1 11.37 11.37v31.84zm22.742-6.823a2.276 2.276 0 0 1-2.274-2.275 2.276 2.276 0 0 1 2.274-2.274 2.276 2.276 0 0 1 2.274 2.274 2.276 2.276 0 0 1-2.274 2.275zm50.032-31.839H62.12c-2.561-5.37-8.028-9.097-14.362-9.097h-3.925c3.79-3.336 6.2-8.21 6.2-13.645 0-10.031-8.163-18.194-18.194-18.194v-27.29h100.064v68.226zm4.549-72.774H27.29V4.548h109.162v4.549z"/>
        <path d="M29.565 134.177h4.548V141h-4.548zM61.403 70.5a6.83 6.83 0 0 0 6.823-6.823c0-1.128-.303-2.178-.79-3.115l11.708-13.38a6.778 6.778 0 0 0 2.727.576c1.701 0 3.238-.648 4.435-1.68l9.747 8.123a6.788 6.788 0 0 0-.537 2.654 6.83 6.83 0 0 0 6.823 6.822 6.83 6.83 0 0 0 6.822-6.822 6.732 6.732 0 0 0-.998-3.5l11.378-17.068c.327.048.652.1.991.1a6.83 6.83 0 0 0 6.823-6.822 6.83 6.83 0 0 0-6.823-6.823 6.83 6.83 0 0 0-6.822 6.823c0 1.767.691 3.363 1.796 4.575L104.63 50.455c-.719-.257-1.483-.423-2.29-.423-1.158 0-2.231.316-3.186.828L88.58 42.05c.061-.364.114-.732.114-1.115a6.83 6.83 0 0 0-6.823-6.822 6.83 6.83 0 0 0-6.823 6.822c0 1.128.303 2.18.79 3.116L64.13 57.431a6.778 6.778 0 0 0-2.727-.576 6.83 6.83 0 0 0-6.822 6.822 6.83 6.83 0 0 0 6.822 6.823zm59.13-43.21a2.276 2.276 0 0 1 2.273 2.275 2.276 2.276 0 0 1-2.274 2.274 2.276 2.276 0 0 1-2.274-2.274 2.276 2.276 0 0 1 2.274-2.275zm-18.194 27.29a2.276 2.276 0 0 1 2.274 2.275 2.276 2.276 0 0 1-2.274 2.274 2.276 2.276 0 0 1-2.274-2.274 2.276 2.276 0 0 1 2.274-2.274zM81.87 38.662a2.276 2.276 0 0 1 2.274 2.274 2.276 2.276 0 0 1-2.274 2.275 2.276 2.276 0 0 1-2.274-2.275 2.276 2.276 0 0 1 2.274-2.274zM61.403 61.403a2.276 2.276 0 0 1 2.274 2.274 2.276 2.276 0 0 1-2.274 2.275 2.276 2.276 0 0 1-2.274-2.275 2.276 2.276 0 0 1 2.274-2.274z"/>
    </g>
</svg>
