<svg xmlns="http://www.w3.org/2000/svg" width="139" height="139" viewBox="0 0 139 139"><path fill="#EF7A21" fill-rule="evenodd" d="M69.5 35.88c-14.832 0-26.898 12.065-26.898 26.897 0 9.67 5.117 18.465 13.449 23.273v2.533c-1.354 1.024-2.242 2.631-2.242 4.456 0 1.266.438 2.423 1.148 3.362a5.538 5.538 0 0 0-1.148 3.36 5.609 5.609 0 0 0 5.604 5.604h20.173a5.609 5.609 0 0 0 5.604-5.604 5.553 5.553 0 0 0-1.148-3.362 5.549 5.549 0 0 0 1.148-3.362c0-1.825-.888-3.432-2.242-4.456v-2.533c8.332-4.808 13.449-13.601 13.449-23.274 0-14.83-12.065-26.895-26.897-26.895zm10.086 65.002H59.414a1.124 1.124 0 0 1-1.121-1.121c0-.617.504-1.12 1.12-1.12h20.173c.617 0 1.121.503 1.121 1.12 0 .616-.504 1.12-1.12 1.12zm0-6.724H59.414a1.124 1.124 0 0 1-1.121-1.121c0-.617.504-1.121 1.12-1.121h20.173c.617 0 1.121.504 1.121 1.12 0 .617-.504 1.122-1.12 1.122zm.099-11.437l-1.22.628v4.084h-6.724v-16.01c3.858-1.001 6.725-4.482 6.725-8.647 0-4.944-4.022-8.966-8.966-8.966-4.945 0-8.966 4.022-8.966 8.966 0 4.165 2.866 7.646 6.724 8.648v16.009h-6.724v-4.084l-1.22-.626c-7.542-3.86-12.229-11.503-12.229-19.947 0-12.359 10.056-22.414 22.415-22.414s22.414 10.055 22.414 22.414c0 8.444-4.686 16.088-12.23 19.945zm57.686.67c-1.571-7.179-4.234-14.423-7.83-21.52 5.228-17.891 2.908-34.48-7.512-44.899-9.282-9.28-23.504-12.397-40.075-8.773a73.374 73.374 0 0 0-4.842 1.253c-7.094-3.59-14.332-6.251-21.506-7.82C37.291-2.378 21.56 1.06 11.31 11.31S-2.376 37.294 1.63 55.609c1.57 7.18 4.23 14.424 7.827 21.52-5.324 18.14-2.795 34.593 7.513 44.901 6.758 6.758 16.136 10.246 27.13 10.246 4.107 0 8.44-.489 12.942-1.473a73.374 73.374 0 0 0 4.842-1.253c7.094 3.591 14.332 6.252 21.506 7.82 4.987 1.09 9.782 1.63 14.327 1.63 12.15 0 22.511-3.85 29.97-11.31 10.253-10.248 13.689-25.981 9.684-44.299zm-18.512-63.25c8.396 8.397 10.774 21.48 7.57 36.008-5.049-8.619-11.475-16.928-19.064-24.515-7.587-7.59-15.896-14.016-24.515-19.064 14.397-3.171 27.527-.91 36.009 7.572zM6.009 54.652c-3.67-16.77-.662-31.037 8.47-40.171 6.595-6.595 15.863-9.995 26.823-9.995 4.216 0 8.686.504 13.348 1.524 5.447 1.193 10.943 3.044 16.378 5.485-12.583 4.792-24.98 12.978-35.768 23.766a113.459 113.459 0 0 0-10.715 12.407c-1.02-.35-2.097-.58-3.236-.58-5.561 0-10.087 4.525-10.087 10.086 0 2.867 1.215 5.442 3.14 7.28a89.105 89.105 0 0 0-2.86 6.595c-2.445-5.443-4.3-10.943-5.493-16.397zm20.904 2.522a5.61 5.61 0 0 1-5.604 5.604 5.61 5.61 0 0 1-5.603-5.604 5.61 5.61 0 0 1 5.603-5.604 5.61 5.61 0 0 1 5.604 5.604zm-6.772 61.687c-8.282-8.282-10.793-21.27-7.547-35.968 5.043 8.605 11.463 16.898 19.041 24.474 7.59 7.592 15.899 14.02 24.521 19.068-14.4 3.174-27.53.913-36.015-7.574zM69.5 67.26a4.487 4.487 0 0 1-4.483-4.483 4.487 4.487 0 0 1 4.483-4.483 4.487 4.487 0 0 1 4.483 4.483A4.487 4.487 0 0 1 69.5 67.26zm-34.696 36.937c-8.468-8.468-15.428-17.845-20.545-27.519 1.049-3.263 2.394-6.59 3.983-9.947.973.314 1.99.529 3.066.529 5.56 0 10.087-4.526 10.087-10.087a10.06 10.06 0 0 0-3.002-7.166A109.602 109.602 0 0 1 38.431 38.43C50.259 26.6 63.759 18.37 76.65 14.244c9.686 5.118 19.069 12.082 27.546 20.56 8.475 8.474 15.439 17.86 20.558 27.542-2.501 7.776-6.529 15.816-12.027 23.684a9.987 9.987 0 0 0-4.003-.839c-5.561 0-10.087 4.526-10.087 10.087 0 2.049.62 3.95 1.674 5.541-11.765 11.691-25.16 19.841-37.958 23.939-9.686-5.12-19.073-12.084-27.55-20.561zm79.525-8.92a5.609 5.609 0 0 1-5.604 5.605 5.609 5.609 0 0 1-5.604-5.604 5.609 5.609 0 0 1 5.604-5.604 5.609 5.609 0 0 1 5.604 5.604zm10.192 29.245c-9.13 9.132-23.39 12.145-40.171 8.47-5.447-1.191-10.94-3.043-16.378-5.484 12.518-4.768 24.853-12.897 35.6-23.605 1.513.908 3.264 1.462 5.154 1.462 5.56 0 10.086-4.526 10.086-10.087 0-2.518-.959-4.795-2.49-6.563 4.804-6.857 8.538-13.86 11.176-20.76 2.445 5.444 4.301 10.944 5.494 16.398 3.668 16.769.66 31.038-8.471 40.17z"/></svg>